<mxfile host="app.diagrams.net" modified="2024-04-19T02:35:02.327Z" agent="Mozilla/5.0 (Macintosh; Intel Mac OS X 10_15_7) AppleWebKit/537.36 (KHTML, like Gecko) Chrome/123.0.0.0 Safari/537.36" version="24.2.5" etag="D4PZ9dxbIQ29Hfv9bkPG" type="github">
  <diagram name="Page-1" id="_PH0BtbtSlCp9AcE1A8c">
    <mxGraphModel>
      <root>
        <mxCell id="0" />
        <mxCell id="1" parent="0" />
      </root>
    </mxGraphModel>
  </diagram>
</mxfile>
